<?xml version="1.0" encoding="UTF-8"?>
<svg id="_レイヤー_1" data-name="レイヤー_1" xmlns="http://www.w3.org/2000/svg" version="1.1" viewBox="0 0 48 48">
  <!-- Generator: Adobe Illustrator 29.3.1, SVG Export Plug-In . SVG Version: 2.1.0 Build 151)  -->
  <defs>
    <style>
      .st0 {
        fill: #f1901d;
      }

      .st1 {
        fill: #fff;
      }

      .st2 {
        fill: #4b4339;
      }
    </style>
  </defs>
  <path class="st2" d="M43.45,12.89c.27.14,2.28,1.17,2.37,1.28.13.15.77.8.95,1.13.08.14.26.53.39.78,2.24,4.35-3.32,10.25-5.89,13.36-2.74,3.32-5.76,6.4-8.48,9.73-2.83,3.46-4.14,7.48-9.52,6.04-2.17-.58-5.11-2.5-7.19-3.54-1.08-.54-2.18-1.18-3.23-1.68-3.36-1.61-7.72-2.84-10.87-4.63-.55-.31-1.31-1.05-1.47-1.67-.14-.54.53-.54.84-.81.53-.45,1.24-1.55,1.77-2.11.39-.41,2.16-1.86,2.23-2.25.08-.45-2.26-1.67-1.78-2.14.02-.02-.28.07-.11-.1.24-.23.62-1.09.91-1.45,1.11-1.36,2.32-2.62,3.4-4.04,2.09-2.75,3.93-5.88,6.04-8.71,1.61-2.17,3.57-4.11,5.2-6.28.37-.5,1.58-2.09,1.77-2.57.12-.31.5-.67.53-.7.28-.24,1.3.53,1.64.67,6.89,2.86,13.95,6.18,20.5,9.68ZM29.61,7.37c-.88-.42-1.66-.94-2.49-1.33-1.66-.77-3.44-1.28-5.06-2.16-.62,1.83-1.96,3.46-3.14,4.99-.85,1.11-1.99,2.23-2.82,3.32-2.32,3.05-4.25,6.43-6.56,9.49-1.38,1.83-2.99,3.49-4.3,5.37,0,.39,3.52,1.69,4.11,1.97,1.41.66,2.96,1.43,4.39,2.13,2.65,1.3,5.57,2.51,8.32,3.78,1.34.62,3.96,1.51,5.04,2.26.75.51,1.72,2.52,2.17,3.35.12,0,1.03-.9,1.18-1.06,3.23-3.58,6.45-7.75,9.48-11.53.42-.53,1.53-1.47,1.79-1.93.21-.36.44-.78.59-1.15.16-.39.97-1.46,1.31-2.01.6-.95,2-3.87,2.06-4.92s-.34-2.74-1.3-3.25c-4.91-2.58-9.87-4.97-14.79-7.32ZM12.76,31.95c-2.16-1.02-4.34-2.01-6.5-3.04.89,1.75.72,3.68-.89,4.91,1.32.48,2.58,1.19,3.88,1.71,4.78,1.91,9.14,3.68,13.81,5.86.96.45,1.43,1.17,2.69.66.5-.2,1.2-1.3,1.31-1.82.52-2.46-1.79-2.19-3.28-3.29-3.66-1.6-7.42-3.32-11.01-5.01Z"/>
  <path class="st0" d="M29.61,7.37c4.92,2.35,9.88,4.75,14.79,7.32.96.5,1.36,2.26,1.3,3.25-.06,1.04-1.46,3.96-2.06,4.92-.34.55-.98,1.82-1.14,2.22s-.56.58-.77.94c-.26.46-1.37,1.41-1.79,1.93-3.03,3.77-6.25,7.95-9.48,11.53-.15.16-1.06,1.06-1.18,1.06-.45-.83-1.42-2.83-2.17-3.35-1.08-.75-3.71-1.64-5.04-2.26-2.76-1.28-5.67-2.48-8.32-3.78-1.43-.7-2.99-1.47-4.39-2.13-.59-.28-4.11-1.57-4.11-1.97,1.3-1.88,2.91-3.54,4.3-5.37,2.31-3.06,4.24-6.44,6.56-9.49.83-1.09,1.97-2.21,2.82-3.32,1.18-1.53,2.52-3.16,3.14-4.99,1.62.88,3.4,1.39,5.06,2.16.83.39,1.61.91,2.49,1.33ZM39.83,22.11c.07-.09.3-.13.4-.27.56-.74,3.24-4.21,3.1-4.88-.05-.24-.38-1.16-.72-.94-.25.17-1.53,2.57-1.93,3.09-3.8,4.97-8.1,9.77-11.92,14.64-.24.31-.99.76-.88,1.16.05.2.85,1.2,1.18.77,3.49-4.33,7.08-8.63,10.5-13.05.13-.16.15-.38.27-.54Z"/>
  <path class="st1" d="M12.76,31.95c3.59,1.68,7.35,3.41,11.01,5.01,1.49,1.1,3.8.83,3.28,3.29-.11.52-.81,1.61-1.31,1.82-1.26.51-1.73-.21-2.69-.66-4.67-2.19-9.02-3.95-13.81-5.86-1.3-.52-2.56-1.23-3.88-1.71,1.61-1.24,1.78-3.17.89-4.91,2.16,1.03,4.34,2.02,6.5,3.04Z"/>
  <path class="st2" d="M39.83,22.11c-.12.16-.15.38-.27.54-3.42,4.42-7.01,8.72-10.5,13.05-.33.43-1.12-.57-1.18-.77-.11-.4.64-.85.88-1.16,3.82-4.87,8.12-9.68,11.92-14.64.4-.52,1.68-2.93,1.93-3.09.33-.22.67.7.72.94.13.66-2.54,4.14-3.1,4.88-.1.13-.32.17-.4.27Z"/>
</svg>