<?xml version="1.0" encoding="UTF-8"?>
<svg id="_レイヤー_1" data-name="レイヤー_1" xmlns="http://www.w3.org/2000/svg" version="1.1" xmlns:xlink="http://www.w3.org/1999/xlink" viewBox="0 0 48 48">
  <!-- Generator: Adobe Illustrator 29.3.1, SVG Export Plug-In . SVG Version: 2.1.0 Build 151)  -->
  <defs>
    <style>
      .st0 {
        fill: #fefeff;
      }

      .st1 {
        fill: #ddbb7e;
      }

      .st2 {
        fill: #e1c189;
      }

      .st3 {
        fill: #dbb676;
      }

      .st4 {
        fill: #ddbc80;
      }

      .st5 {
        fill: #dfbf86;
      }

      .st6 {
        fill: #ddbb7f;
      }

      .st7 {
        fill: #debd81;
      }

      .st8 {
        fill: #debd80;
      }

      .st9 {
        fill: #dbb879;
      }

      .st10 {
        fill: #dbb776;
      }

      .st11 {
        fill: #dab675;
      }

      .st12 {
        fill: #dcb97b;
      }

      .st13 {
        fill: #d8b36f;
      }

      .st14 {
        fill: #ddbb7d;
      }

      .st15 {
        fill: #dcb978;
      }

      .st16 {
        fill: #c99842;
      }

      .st17 {
        fill: #dbb97a;
      }

      .st18 {
        fill: #d9b573;
      }

      .st19 {
        fill: #d8b471;
      }

      .st20 {
        fill: #debe84;
      }

      .st21 {
        fill: #ddb979;
      }

      .st22 {
        fill: #dcba7b;
      }

      .st23 {
        fill: #debd82;
      }

      .st24 {
        fill: #dfbe85;
      }

      .st25 {
        fill: #ddbc7f;
      }

      .st26 {
        fill: #dbb878;
      }

      .st27 {
        fill: #debc82;
      }

      .st28 {
        fill: #dab674;
      }

      .st29 {
        fill: #ddbc82;
      }

      .st30 {
        fill: #ddbd82;
      }

      .st31 {
        fill: #e0be84;
      }

      .st32 {
        fill: #d9b36f;
      }

      .st33 {
        fill: #e0bf86;
      }

      .st34 {
        fill: #dfbe83;
      }

      .st35 {
        fill: #dcb877;
      }

      .st36 {
        fill: #ddbb7c;
      }

      .st37 {
        fill: #dbb97b;
      }

      .st38 {
        fill: #dab573;
      }

      .st39 {
        fill: #ddb772;
      }

      .st40 {
        fill: #dbb979;
      }

      .st41 {
        fill: #dab778;
      }

      .st42 {
        fill: #dcb979;
      }

      .st43 {
        fill: #d9b472;
      }

      .st44 {
        fill: #dcbb7e;
      }

      .st45 {
        fill: #debf85;
      }

      .st46 {
        fill: #dcb775;
      }

      .st47 {
        fill: #dcb97a;
      }

      .st48 {
        fill: #ddba7b;
      }

      .st49 {
        fill: #dcba7c;
      }

      .st50 {
        fill: #debe83;
      }

      .st51 {
        fill: #005b45;
      }

      .st52 {
        fill: #d7b06a;
      }

      .st53 {
        fill: #debc81;
      }

      .st54 {
        fill: #dcba7d;
      }

      .st55 {
        fill: #dfbf83;
      }

      .st56 {
        fill: #dcb878;
      }

      .st57 {
        fill: #d9b576;
      }

      .st58 {
        fill: #5365ae;
      }

      .st59 {
        fill: #a7aad4;
      }

      .st60 {
        fill: #dab572;
      }

      .st61 {
        fill: #d8b16b;
      }

      .st62 {
        fill: #ddba7e;
      }

      .st63 {
        fill: #debc7f;
      }

      .st64 {
        fill: #ddba7c;
      }

      .st65 {
        fill: #ddba7d;
      }

      .st66 {
        fill: #dcbb7d;
      }

      .st67 {
        fill: #d9b471;
      }

      .st68 {
        fill: #dcb879;
      }

      .st69 {
        fill: #dab777;
      }

      .st70 {
        fill: #dab879;
      }

      .st71 {
        fill: #dbb777;
      }

      .st72 {
        fill: #ddba77;
      }

      .st73 {
        fill: #dbb877;
      }
    </style>
  </defs>
  <image width="2388" height="1668" transform="translate(-211.8 66.5) scale(0)" xlink:href="../../../../../Downloads/IMG_4319.PNG"/>
  <path class="st16" d="M30.4,2.4c.8,0,.8,0,1.2.5.3.3.6.5.8.6.2.2.4.4.6.6.4.1,1,.7,1.2,1.1.4.3.7.7.9,1.1.2.2.5.5.8.6.2.3.5.5.9.5v.2c.6.7,1.2,1.3,1.9,1.8,0,0,.1-.2.3.3.3,0,.5.2.6.5,0,0,.2,0,.3,0s0,.2,0,.3c.5,0,.8.3.9.6,0,0,0,.2.1.2,0-.2,0-.3.2-.3-.1.4.2.4.3.6.3,0,.5.2.8.5.3.6.5.6,1.1,1.1.3.3.5.6.8.9,0,.1,0,.4,0,.5.2-.1.3-.1.5,0,0,.5,0,1.4.1,1.7s.7.8.9,1.2c.3.3-.2.5-.5.6l-.2.3c-.6.5-1,.9-1.4,1.5l-.4.6c0,0-.1,0-.2,0-.5.4-1,1-1.4,1.7,0,0,0,.1,0,.2-.1,0-.2-.1-.2-.2-.2.2-.5.4-.8.6-.3.4-.5.9-.8,1.4-.1,0-.3,0-.5-.2.2.6-.6.9-.8,1.4-.2.5-.5.9-1.1,1.2-.1.5-.5,1.1-1.1,1.2v.4c-.6.4-1.1,1-1.5,1.7-.6.4-1,1-1.5,1.5-.5.4-1,.9-1.5,1.5-.9.9-1.8,1.9-2.6,3-.3,0-.5.3-.7.8-.6.5-1.1,1-1.7,1.5-.3.2-.5.5-.8.8l-1.8,1.7c-.2.2-.4.3-.5.5-.4.2-.6.4-.8.8-.2,0-.4.2-.7.2s-.5-.4-.6-.4-2,1-2.5,1.1-.4,0-.5,0c-.3,0-.1.3-.5,0-.6.1-1.1.3-1.5.5-1.1.4-2.3.7-3.5.5,0,0-.1.1-.2.2-.3-.1-.5-.1-.8,0-.7.2-1.5.3-2.3.5-1.3,0-.8,0-1.4-1s-.4-.6-.7-1.5c-.3-.3-.6-.7-.9-1v-.2c.1-.7.3-1,.2-1.7,0-.3.2-.7.2-1.1,0,0,0-.2,0-.3.3-.2.4-.5.3-.9-.6-.7-.1-.3,0-.5s.1-1,.2-1.1c.2-.5.3-.9.3-1.4,0,0,0-.2,0-.3.2-.4.3-.8.3-1.2-.5-1,0-.4,0-.7,0-.4-.4-.8-.3-.8l.6.3c.1-.2-.7-1.9.3-1.7-.4-.6,0-.6,0-.7s0-.2,0-.2c.1-.4.3-.7.5-1.1.2-.4.3-.7.2-1.3.2-.2.4-.4.5-.7,0,0-.1-.2-.2-.3l.4-.4c0-.3.1-.4.4-.3.1-.2.2-.3.3-.5l1-.7c0-.6.3-1.1,1-1.4.7-.8,1.4-1.6,2-2.4.5-.4.3-.5.5-.8.7-.4,1.3-1,1.7-1.8l.4-.2c.3-.4.3-.7.7-1.1s.1-.4.2-.5c.1,0,.5,0,.6,0s-.2-.2.1-.6c.4,0,.6-.3.8-.8.3-.3.5,0,.6,0s-.1-.4-.1-.5c.3-.1.6-.3.8-.6,0-.3.5-.7.8-.8.3-.7.4-.6.6-.8.2-.2.4-.5.6-.9,0-.3,0-.6,0-.6.3-.1.7.3.6-.5l.4.2c0-.2,0-.5,0-.8.4-.2.7-.5,1.1-.7,0-.5.5-.3.5-.2s-.4-.1,0-.3c0-.1,0-.3,0-.5,0,0,.5.2.6.2.2-.2,0-1.2.8-.8-.1-.9.4-.6.4-.6,0,0,0-.2,0-.3h.6c.1-.4.3-.7.6-.8.3-.5.6-.9,1.1-1.4.3-.2.5-.3.8-.5ZM31.6,5.7c0,0,0-.3,0-.3-.1.2-.8.3-.8.3s0,.4,0,.6c-.3.9-.7.5-.9.6s0,.3,0,.5c-.1.4-.4.2-.4.2,0,0-.4.3-.5.3-.1.1,0,.3,0,.4,0,0-.7.6-.5.8,0,0-.1,0-.2,0-.3,0-.3-.1-.3.5l-.4-.2.2.5c0,0-.3.5-.5.6s-.3,0-.4,0,0,.4-.2.5-.7.3-.7.4.1.5-.1.7-.6,0-.7.2,0,.4,0,.6-.8,1-1.1,1.4-.8.7-.9.8-.2.7-.2.7,0-.1-.4,0-.5,0-.4.8l-.6-.2c.2.9-.5.8-.6.9,0,0,0,.4,0,.6s-.5.3-.5.5,0,.2,0,.3c-.2,0-.5.1-.6.2-.2.2-.3.9-.8,1.1s-.4-.1-.4,0c0,0,.5.4-.6,1.1s-.3.3-.3.3c-.1,0-.4-.4-.3.3h.1c0,.1-.2.5-.5.7s-.4,0-.4,0,0,.4,0,.6-.8.9-1,1.2c0,0-.3,0-.4,0s0,.3-.2.5-.3.1-.3.1c0,0,.2.2,0,.4s-.7.3-.7.4c0,0-.7,1.6.1,1.2,0,0,.1.2.2.3,0,.2.1.4.2.6.2-.2.5-.1.8-.2,1.3-.2.7-.7,1.1-1s.3,0,.4,0,.3-.4.5-.6c.4-.4.3-.6.9-.3-.2-.4,0-.5.2-.8.4-1,.5-1.1,1.4-1.7s1.1-.5.3-.6c.2-.2.3-.2.5-.3s.2,0,.3,0c.2-.2.9-.8.8-1.2.4,0,.2-.3.3-.4s.3-.1.6-.5.7.2.2-.4c.2-.2.4-.6.3-.9,0,0,.3.2.3.2h.3c.2-.6,1.1-.7,1.1-1.4.1-.1.2-.3.5-.5s0-.2.3-.3c.4-.1.7.2.3-.6s-.1,0-.1,0c0,0,.1,0,.1,0,.8.3.9-1.4,1.6-.9v-.6c0-.3.4-.4.7-.6s.3,0,.5-.2c.5-.3.4-.7.6-1s.6-.4.7-.4c.2-.2.2-.8.2-.9s.3,0,.3,0c.5-.4.8-.6,1-1.2,0-.1.2-.2.3-.3.6,0,.5-.8,1.1-.7l.6-1.1c0,0,.3-.5.3-.6,0-.3-.6-.6-.8-.7h0c-.3-.3-.7-.4-.9-.9ZM36.4,11c0-.2-.4-.8-.5-.9s-.7,0-.7,0c-.5.4-.9,2.2-1.9,2.3l-.6,1.3c-.2.2-.5.5-.8.8-.7,0-.6.5-.8.7s-1,.5-1,.5c-.2.2.3.7-.5.6.3.7,0,.3-.3.6s-.3.5-.6.5l.3.3c-1-.4-.6.5-1,1.1s-.5,0-.5,0,0,.3,0,.4-1.2,1.4-1.4,1.6c-.6.4-.8.9-1.3,1.7s-.3.5-.5.8l-1.9,1.7c-.1.1,0,.4,0,.4-.3.4-.6.8-.9,1.1-.5.5-1.5,1.4-1.9,1.9s0,.4-.3.6-.5,0-.5.2c-.1.1,0,.4,0,.6,0,0-.2,0-.3,0-.4.5.1,1.3.6,1.6s.8-.3,1.1-.6.3,0,.4-.1c.2-.2.3-.7.3-.8.1,0,.3,0,.4,0,.4-.2.8-.9,1.1-1.4s0-.7.8-.6c0-.2-.2-.5-.2-.6.6.2,1-.8,1.4-1.2s.1,0,.2-.2c.1-.1.7-.3.8-.3.1-.2-.1-.4-.1-.4,0,0,0-.1,0-.2.7-.2,1.3-.4,1.1-1.2,0,0,.1,0,.2,0s0,.2.3.1c-.4-.4,1.1-1.1.3-1.1,0,0,.4-.5.5-.6.6.2.3-.5,1.1-.2-.2-.3,0-.6.2-.9,0,0,.2,0,.3,0s0-.5.6-.1c-.3-.8,1.2-1.3,1.3-1.3,0-.2,0-.5.1-.6s.4.2.6-.5,0-.3,0-.6l.3.2c-.1-.6.6-.7.9-1s0-.3,0-.4c0,0,.4,0,.4,0,0,0,0-.6,0-.7s.3,0,.3,0l.3.2v-.5s.4.3.4.3c-.2-.6.3-.6.5-1.1,0,0,.1,0,.2,0,.1,0,.2-.3.3-.4s.3,0,.3,0c0-.1,0-.6.2-.7s.4,0,.6,0,0-.4.2-.6c.5-.5,1.4-.4,1.1-1.5.8,0-.4-.6-.8-.6,0-.1,0-.2-.2-.3ZM39.9,14.1c-.3.2-.3.5-.6.8l-.5-.5c.4.6-.6.8-.5,1.5-.1,0-.2.3-.3.4s-.3,0-.3,0c0,0,0,.4,0,.4-.7-.1-.4.2-.5.4-.2.3-.6-.1-.7.5s0,.1,0,.2c-.1.3-.6.3-.7.5-.3.3-.8,1.2-1,1.4s-.4,0-.5.2c-.2.3,0,1.1-.8.7,0,.1.2.3.1.3,0,0-.5.5-.5.6-.3.2-.5-.2-.3.5-.9.3-1.5,1.4-1.9,2.2,0,0-.1,0-.2,0-.4.3-1,.5-1.1,1.2,0,0,0,.1-.2.2s-.2,0-.3,0c-.2.2-.3.6-.4.7-.4.2-.5-.3-.7.6s0,.6,0,.6c0,0-.6,0-.7,0s0,.3,0,.4c0,.1-.2.5-.3.6-.1,0-.7.3-.7.3,0,.1,0,.4,0,.6s-.3,0-.4.2c-.1.3-.2.3-.3.6-.1.5-.9.5-1,.6s-.1.5-.2.7c0,0-.3,0-.3,0,0,0,0,.6,0,.6-.2.2-.7-.4-.6.6-.2.2-.2.3-.5.5-.4.3-.4.7-1.1.5.1.3.1.6.3.9s1,.5,1.1,1.1c0-.8.4-.3.7-.5s-.1-.6.2-.7.3.1.4.1.2,0,.3,0c-.1-.8.2-.5.4-.6s.1-.3.3-.4,1.1-.6.4-.6c0,0,0-.2.5-.5s.3,0,.5,0,.1-.3.5-.7.5-.4.2-.5c0,0,0-.3.2-.4s.4,0,.4,0c0,0-.2-.4-.2-.4s.2,0,.3,0c.4.4.8-.5.9-.6.6-.7,1.5-1.2,2-1.9,0-.1-.1-.2-.1-.2,0,0,0-.1,0-.2.6,0,.7-.6,1.2-.9s.2,0,.3,0c0-.1,0-.5,0-.6s.5,0,.6,0,0-.4.2-.5c.8-1,1.4-1.6,2.1-2.8s0-.2.2-.3c.6.4.6-.4.8-.7s.7,0,0-.5c0,0,.6-.4.8-.5s.2.2.4,0,.2-.6.3-.9c0,0,.1,0,.2,0,.2,0,.7-.8.6-1.1,0,0,0-.2,0-.3v.2c.1,0,.2.1.2.1.4,0,.4-.5.4-.6,0,0,.2-.1.2-.2.3-.3.4-.4.6-.6h.3c0-.3.6-.4.7-.5s0-.3,0-.4c.1-.1,1-.1.4-.8,0,0-.1,0-.2,0v-.5c-.4.3-.4-.2-.9-.3,0-.2,0-.3-.2-.5s0-.2,0-.3-.7-.3-.9-.2ZM12,28.1c-.2.6-.3,0-.2.9,0,0-.3.1-.3.2s.2.4.1.7c-.6.5-.2,1.4-.5,2.1s-.3,0-.3.3c0,.6.3.4.5.5,1.3,1.1,2.5,2.6,3.8,3.6,0,.3.7.9.9.6,0,0,.2,0,.3.2.2.6.8,1.1,1.4,1.2s.4,0,.9,0,.4.3.5-.2.1-.2.5-.3l1.2-.2c0,0-.2-.1-.2-.1,0,0,0-.1,0-.1.2,0,.4-.2.7-.2s.2.2.3.2c.1-.2.2-.9,0-1.1s-.3.2-.3.2c-.9-.1-.6-.7-1.1-1.1-1.2-.9-2.5-2.7-3.5-3.8s-1.5-1.3-1.8-1.5-.5.1-.9-.5-.3-.4-.8-.8-.8-.6-1.1-1.1c-.1,0,0,.2,0,.3Z"/>
  <path class="st1" d="M71.9,24.2c.2-.2.4-.1.4-.6.4.2.2,0,.3-.1.2-.2.5,0,.3-.4.4,0,.3,0,.3-.4h.2c0,.2,0,.4,0,.5s-.5.3-.6.4-.2.5-.4.6-.4,0-.4,0Z"/>
  <path class="st19" d="M72.4,12.5c.6.2.2.1.4.4s.5.3.6.3c0,0,0,.3.1.4-.2.2-.1,0-.2,0-.4-.4-.7-.4-.9-1Z"/>
  <path class="st21" d="M59.5,19.2c0,.2-.2.3-.2.4s-.1.1-.2.3c-.2.2-.3.8-.7.8,0,0,0,0,0,0,.3-.2.2-.2.4-.5s.5-.4.4-.7h.2c0-.3.1-.1.2-.2Z"/>
  <path class="st64" d="M58.3,20.7c-.1.5-.6.2-.5.9l-.7.4c.2-.3.4-.4.4-.4.1-.2.1-.4.2-.5s.4-.3.5-.4h0Z"/>
  <path class="st20" d="M71.9,24.2s.1.3,0,.4h-.3c.2.2-.3.3-.3.4s.1.2,0,.2-.4.2-.4.3c.1-.2.2-.4.3-.6s.5-.5.6-.7Z"/>
  <path class="st17" d="M77,18.7c-.1.1-.4.5-.4.5,0,0-.2,0-.2,0s0,.1,0,.2-.4.5-.5.6c0-.3.1-.6.4-.8s.2,0,.2,0c0,0,0-.3,0-.3s.3,0,.4,0Z"/>
  <path class="st27" d="M60.4,33.3c-.3.3-1.3.4-1.7.4s-.2,0-.3-.1c.2,0,.5,0,.8,0s.9-.2,1.3-.3Z"/>
  <path class="st26" d="M61,17.6c-.2.2-.5.6-.8.8s0,.3-.5.3c.2-.2.5-.4.6-.6s.2-.7.6-.6Z"/>
  <path class="st67" d="M56.6,22.8c.1.6,0,.2-.2.4s0,.4,0,.5-.2.2-.2.2c0,0,0,0,0,0,.1-.3.2-.4.1-.7l.4-.4Z"/>
  <path class="st22" d="M65.9,30.8s0,.2-.2.3c-.2.2-.6.5-.9.7.1-.2.3-.4.5-.6s.4-.4.6-.4Z"/>
  <path class="st35" d="M65.8,12.1c0,0,.1.1,0,.3h-.3c0,.2,0,.3-.4.3v.2c0,0-.3,0-.3,0,0,0,.3-.4.4-.4s.1,0,.2,0c.1-.1,0-.4.4-.3Z"/>
  <path class="st25" d="M69.2,27.2c-.1.3-.3.6-.6.8s-.3,0-.4,0-.2.5-.4.7,0,.2,0,.2c0,0-.2-.1-.3,0s-.1.4-.2.4h0c0-.2,0-.3.2-.5s.6-.5.7-.6c.3-.5.7-.7,1.1-1.2Z"/>
  <path class="st54" d="M57.8,33.6c-.2.3-1,.3-1.3.3.3-.2.9-.3,1.3-.3Z"/>
  <path class="st44" d="M75.8,19.9c-.3.3-.4.7-.8,1v-.4c.4,0,.5-.5.6-.7.1,0,.1.2.2.2Z"/>
  <path class="st31" d="M67.3,29.4h0c-.3.4-.8.6-1.1.9,0-.3.3-.3.4-.4s.1-.5.5-.5Z"/>
  <path class="st56" d="M68.2,9.7s0,.2,0,.3c-.2.2-.4.3-.6.5,0,0,0-.2,0-.4s.5-.4.6-.4Z"/>
  <path class="st57" d="M54.7,31.8c0,.2.3.2.3.2,0,0,.2.4.2.5-.1,0-.6-.4-.6-.5,0-.1,0-.2,0-.3Z"/>
  <path class="st36" d="M70.1,26.3c-.3.3-.5.6-.9.9.1-.3.2-.3.4-.5s.1-.5.5-.4Z"/>
  <path class="st40" d="M61.2,33c-.1.2-.6.2-.9.3,0,0,0-.1,0-.2.2,0,.6,0,.6,0,0,0,0-.2.1-.2,0,0,0,0,0,0Z"/>
  <path class="st4" d="M74.5,21.4c-.2.2-.5.5-.4.8,0,.1,0,0,0,0,0-.3.3-.6.4-.8.1-.1.2,0,0,0Z"/>
  <path class="st6" d="M55.5,26.8c.2.5,0,.2,0,.4s0,.2-.2.3c0,0,0,0,0-.2s.2-.2.2-.5Z"/>
  <path class="st9" d="M55,29.4c.3.3,0,.2,0,.6h-.2c0-.2.1-.3,0-.5h.2Z"/>
  <path class="st49" d="M70.8,11.1c.2.1.6.4.5.6-.3-.2-.3-.3-.5-.6Z"/>
  <path class="st49" d="M71.8,12c.2.1.5.2.5.2,0,0,0,.2,0,.3-.3-.1-.5,0-.5-.4Z"/>
  <path class="st11" d="M63.6,14.8c-.1.3-.3.3-.4.4,0,.1-.1.1,0,0,0,0,.3-.4.4-.4,0,0,.1,0,.2,0Z"/>
  <path class="st5" d="M54.8,30.2c0,.3,0,.4.3.6h-.4s0,0,0-.1c0-.1.2-.3.2-.5Z"/>
  <path class="st61" d="M57,22.2c-.1.2-.3.5-.4.4,0-.4.3-.2,0-.5h.4Z"/>
  <path class="st17" d="M74.1,14.2c.2,0,.6,0,.5.4-.2,0-.2-.2-.4-.2s-.2,0-.2,0c0,0,0-.1,0-.2Z"/>
  <path class="st46" d="M67.6,10.5c-.3.3-.2.5-.7.4,0-.1.3,0,.3-.1s0-.2.1-.3.3,0,.3,0Z"/>
  <path class="st7" d="M64.3,13.8c0,.2,0,.6-.3.6h0c.1-.3,0-.7.4-.6Z"/>
  <path class="st28" d="M55.3,27.7h.2s-.4.8-.4.8c0-.3.1-.5.2-.8Z"/>
  <path class="st37" d="M76.1,15.7c.3.2.4.1.4.5-.1-.3-.5-.1-.4-.5Z"/>
  <path class="st63" d="M56.2,23.9s.1.2,0,.3-.2.2-.3.4h0c0-.2.2-.4.3-.6h0Z"/>
  <path class="st49" d="M69.8,10.1s-.1,0-.2,0-.2-.3-.3-.4c.3,0,.3.1.4.4Z"/>
  <path class="st44" d="M74.8,20.9c0,.2-.3.3-.4.4h0c.2-.4.2-.6.4-.4Z"/>
  <path class="st7" d="M62.4,15.9l.2.2c-.4,0-.2.5-.6.3,0-.1.3-.3.4-.4Z"/>
  <path class="st43" d="M63.1,15.2c-.1.1,0,.5-.4.4,0-.2.3-.2.3-.3s0-.1,0-.2h0Z"/>
  <path class="st43" d="M75,14.8c.4,0,.3,0,.4.3-.4,0-.3-.1-.4-.3Z"/>
  <path class="st55" d="M68.6,9.5c.1.3-.4.2-.4.3.1-.1-.1-.2.4-.3Z"/>
  <path class="st23" d="M58.2,33.6c-.3,0-.3,0-.4,0,0,0,0-.2.1-.2s.2.1.3.2Z"/>
  <path class="st63" d="M73.6,13.7c.3-.2.3,0,.4.3,0,0-.3,0-.3-.1,0,0,0-.1,0-.2Z"/>
  <path class="st62" d="M69.8,10.1c.1,0,.2.2.4,0v.3c0,0-.2,0-.3,0s0-.3-.1-.3Z"/>
  <path class="st63" d="M64.5,32c-.2.2-.4.3-.4.5,0,0,0,0,0,0,0-.3.2-.4.4-.4Z"/>
  <path class="st41" d="M76.8,16.5c-.1,0-.2.2-.3,0l.2-.4c0,0,0,.3,0,.4Z"/>
  <path class="st47" d="M66.8,14.2h-.2c0,0,0,.5,0,.5h-.3c.2.2,0,.1,0,.2s-.1.4-.2.4-.3,0-.3.1.1.2,0,.3-.2,0-.3.1-.2.5-.2.5-.3-.1-.3,0c.2-.2.6-.7.7-.8s0-.3,0-.3.3,0,.4,0,0-.3,0-.4.4-.2.4-.3c0,0,0-.2,0-.3s.2,0,.3,0Z"/>
  <path class="st1" d="M64.8,16.4c0,0,0,.2-.1.4s-.6.8-.7.8-.2,0-.2,0c0,0,.1.3,0,.4,0,0-.2,0-.3,0s-.1.3-.2.4c-.3.4-.3.5-.7.8,0,0,0,0,0-.2s.3-.2.3-.3c0-.1,0-.3,0-.4s.5,0,.3-.5h.4c0-.4,0-.3.2-.4s.2,0,.2,0c0,0,0-.3.1-.4s.4-.3.5-.5Z"/>
  <path class="st49" d="M63.8,23.1c0,.4-.7.7-.8.8s0,.3,0,.4-.5.4-.6.5,0,.3-.2.4-.3.2-.5.4c0,0,0-.3,0-.3s.2,0,.3,0,0-.3.1-.3c.3-.3.8-.9,1.1-1.1s.4-.4.5-.7h0Z"/>
  <path class="st38" d="M71.7,21.5c-.4.7-.8,1-1.2,1.6s0,.3,0,.3c0,0-.3,0-.3,0s0,.3,0,.3-.1,0-.2,0c0,0,0-.3.1-.4s.2,0,.3-.1c.3-.3.9-1.3,1.1-1.6s.2-.3.3-.1Z"/>
  <path class="st26" d="M69.5,16.6c-.1.1-.9.9-1,1s0,.2,0,.2c-.1.2-.6.3-.6.3s0,.4-.2.5-.4,0-.3.3h-.2c0,.4-.1.2-.3.4-.3.3-.8.9-1.1,1.2s-.2.4-.3.6c-.4-.3,0,.6-.4.3.3-.5.5-.8.8-1s.8-.8.9-.9,0-.2,0-.3c0,0,.2.1.3,0,.2-.3,0-.9.6-.6l-.2-.2c.2,0,.2-.2.4-.3s.4,0,.2-.3c.4,0,.2-.2.3-.3s.5-.2.6-.3c.1-.1,0-.4.5-.4Z"/>
  <path class="st65" d="M70.8,20.4c-.4.4-.9.9-1.2,1.4-.2-.2-.3.3-.6.5.2-.5.6-1.1,1.1-1.3-.1-.4,0-.2.2-.3s.3-.3.3-.3c0,0,.1,0,.2,0Z"/>
  <path class="st71" d="M72.3,18.5c0,.5-.2.2-.3.4s0,.3-.1.4-.3,0-.4.3c-.3.4-.3.5-.7.9h-.2s-.1,0,0-.2c.4.2.3-.3.5-.4s.2,0,.3-.1c.1-.1.4-.7.6-.8s.4,0,.4-.3Z"/>
  <path class="st1" d="M72.7,15.1c.2.7-.4.6-.7.9s-.1.3-.1.3c0,0-.3,0-.3,0s0,.4-.1.4-.1,0-.2,0c0,0-.1.2-.2.2,0-.2,0-.6.3-.4,0-.3.1-.4.4-.4l.9-1.1Z"/>
  <path class="st42" d="M69.2,19.1c-.1.4-.3.2-.3.3s0,.2,0,.3-.9.3-.8.8c-.3-.2-.2,0-.3,0s-.2,0-.2,0c0,0,.9-1,1-1s.1,0,.2,0c0,0,0-.2,0-.3s.4-.2.5-.2Z"/>
  <path class="st14" d="M59.8,22.2c0,.1-.2.3-.3.5s-.5.7-.5.8,0,.2,0,.3c-.5.3-.1-.6,0-.7s.4-.1.4-.2,0-.2,0-.2.1,0,.2,0,0-.2.1-.3.2,0,.3,0Z"/>
  <path class="st48" d="M69.2,24.4s.1,0,0,.1c-.3.4-.8.7-1.2,1.1s-.3.6-.5.3c.2,0,.4-.3.4-.5.3.2.2-.2.3-.3s.1,0,.1,0c.1,0,.2-.4.2-.4.1-.1.5-.2.6-.5Z"/>
  <path class="st14" d="M70,16.1l.4-.8c.6,0,.8-1.1,1.1-1.3s.4,0,.4,0c0,0,.2.4.3.5-.2,0-.2-.2-.4-.3-.4-.2-.5.4-.6.6s-.4.3-.5.4c-.1.2.1.3-.3.1,0,.4-.2.5-.4.7Z"/>
  <path class="st12" d="M68.3,14.7s0,.4-.1.5-.3,0-.4.2,0,.4-.4.6-.3,0-.3.1c0-.3.2-.2.3-.3.2-.2.5-.8.8-1.1Z"/>
  <path class="st12" d="M62.7,19.1c-.4.5-.5.5-.9.9s0,.3-.2.3c-.1.1-.4,0-.4,0,.6-.4.3-.6.4-.6s.1.1.3,0c.3-.1.4-.6.5-.6s.2,0,.3-.1Z"/>
  <path class="st17" d="M57.6,25.8c0,.4,0,1.1-.1,1.4s-.3,0,0,.3c0,0-.3,0-.3-.3s.2-.1.2-.2c.2-.5,0-1,.3-1.3,0,0,0,0,0,0Z"/>
  <path class="st23" d="M65,21.7s0,.1,0,.2c-.2.3-.9.7-1.1,1.1h0c0-.1,0-.2,0-.3l1.1-1Z"/>
  <path class="st33" d="M69.3,11.4c-.1.1-.4,0-.4,0,0,.1,0,.4,0,.4,0,.1-.5.3-.5.3,0,0-.1.2-.2.3-.1,0-.1,0,0-.2,0,0,0-.2,0-.3,0,0,.3.2.5-.3s0-.3,0-.4.4,0,.5-.2c0,0,0,.1,0,.2Z"/>
  <path class="st60" d="M75.5,17.4c.3.4-.2.4-.2.5s0,.2,0,.2-.4.1-.4.3h-.2c.3-.4.7-.7.9-1Z"/>
  <path class="st68" d="M70.2,12.7l-.4.7c-.3,0-.3.4-.6.4.2-.2.3-.5.4-.6s.5-.3.6-.5Z"/>
  <path class="st42" d="M66.7,16.5v.4c-.4-.3-.4.7-.9.5.1-.2.4-.4.5-.5s0-.3,0-.3c0,0,.2.1.3,0s0-.1,0-.2Z"/>
  <path class="st49" d="M68.2,23.1c.1.3-.5.5-.5.6s0,.2,0,.3-.1,0-.1,0c0,0,0,0,0,0,.1-.6.2-.2.4-.4s.1-.3.2-.4.1,0,.2,0Z"/>
  <path class="st71" d="M65.9,25.9c-.2.4-.3.6-.7.8,0-.1,0-.4.1-.4s.5-.1.6-.4Z"/>
  <path class="st6" d="M66,22.1c.1.5-.2.6-.6.7,0-.3.3-.2.4-.3s0-.5,0-.5c.2,0,.2,0,.2,0Z"/>
  <path class="st10" d="M66.1,27.5c.4,0-.2.3-.2.4,0,0,0,.2-.2.2-.1,0-.3-.1-.2.4,0,0-.1,0-.2,0,0-.1,0-.4.1-.4.2-.1.5-.3.7-.6Z"/>
  <path class="st52" d="M65.2,18.3c0,.4-.5.4-.6.9h-.2c0,0,0-.2.1-.3.2-.2.5-.4.7-.6Z"/>
  <path class="st13" d="M67.5,20.6c0,.2-.2.3,0,.5-.5-.2-.3.2-.6,0,.3-.3.3-.5.7-.6Z"/>
  <path class="st10" d="M64,19.5c.3.4,0,.2-.1.3-.2.2-.3.2-.4.3s0,.3-.2.2h0c.3-.4.5-.6.7-.8Z"/>
  <path class="st43" d="M68.3,12.6s-.2.4-.3.4c0,0-.2,0-.2,0,0,0,0-.2,0-.2s.2-.1.3-.2.2.1.2-.1v.2Z"/>
  <path class="st3" d="M71,16.9c0,.3-.4.3-.3.6l-.3-.2v.3s-.2-.1-.2-.1c.3-.3.4-.4.7-.6Z"/>
  <path class="st18" d="M72.4,20.6c.4.2,0,.1,0,.3-.1.2-.1.7-.5.4,0-.1.4-.6.5-.7Z"/>
  <path class="st3" d="M73.9,16.8c-.1,0-.3,0-.3,0,0,0,.1.2,0,.3,0,0-.3,0-.3.4,0,0,0,0,0,0-.1-.4.5-.5.3-.9l.3.3Z"/>
  <path class="st50" d="M61.7,25.5c0,.1-.2.3-.2.4,0,.2.5.3.3.6-.3-.2-.6-.6-.4-.9s.2,0,.2,0Z"/>
  <path class="st32" d="M63.8,24.8c-.1.3-.4.7-.6.8,0-.3.3-.7.6-.8Z"/>
  <path class="st22" d="M73.2,19.8c0,.1-.1.4-.2.5s-.2,0-.2,0c0-.5.1-.4.4-.5Z"/>
  <path class="st23" d="M67.1,26.5c.2,0,0,.2-.1.3-.2.2-.3.4-.3.4,0,0-.2,0-.3,0,.2-.2.4-.5.6-.7s.1,0,.1,0Z"/>
  <path class="st22" d="M65.2,26.7c-.2.6-.2.3-.5.7,0-.6.3-.3.4-.4s0-.3,0-.4.1,0,.2,0Z"/>
  <path class="st12" d="M68.9,22.3c0,.1.2.2,0,.2s-.1,0-.1,0c-.1.1-.3.5-.3.5,0,0-.1,0-.2,0,0-.4.4-.5.6-.7Z"/>
  <path class="st34" d="M64.4,27.7c0,.4-.5.4-.4.8-.1-.2,0-.3-.2-.5.4.1.4,0,.6-.3Z"/>
  <path class="st1" d="M69.1,14c-.1.4-.3.5-.6.7s-.2,0-.2,0c.3-.3.6-.5.8-.7Z"/>
  <path class="st70" d="M74.8,16.9c.3,0,.3.3.6.2v.3c-.1,0-.2.1-.3,0s-.3-.4-.4-.5Z"/>
  <path class="st9" d="M66.8,24.9c-.2.4-.1.2-.3.3s.2.6-.4.3c0,0,.2,0,.2-.1,0,0,0-.3,0-.3s.4-.1.4-.2Z"/>
  <path class="st73" d="M63.3,20.3c0,.2-.3.6-.5.7s-.1,0-.1,0c.2-.3.4-.5.6-.8h0Z"/>
  <path class="st56" d="M60.7,21.1c.1.3-.4.5-.5.6-.2.3.2.2-.4.4.1-.2.6-.7.6-.7,0-.1,0-.3,0-.3s.2,0,.3,0Z"/>
  <path class="st9" d="M61.4,22.5c0,.2-.2.2,0,.4-.4-.2-.3,0-.5.2,0-.3.3-.5.6-.6Z"/>
  <path class="st7" d="M65,23.4c-.2.3-.4.8-.8.7,0-.1.2,0,.2-.1.2-.2.2-.5.6-.6Z"/>
  <path class="st72" d="M60.4,30.1c.2.1.7.7.8.7-.3,0-.7-.4-.8-.7Z"/>
  <path class="st28" d="M66.5,21.5c.5,0-.4.4-.2.6-.2,0-.2,0-.2,0,0-.3.2-.4.4-.5Z"/>
  <path class="st34" d="M73,17.9s-.3.4-.3.4c0,0-.3,0-.4,0,0-.4.3-.1.4-.3s-.1-.3.3-.2Z"/>
  <path class="st15" d="M69.9,23.8c-.3.2-.3.5-.7.5,0,0-.1,0,0,0,.3,0,.4-.3.5-.4s.2,0,.3,0Z"/>
  <path class="st56" d="M65.8,17.5c.2.5,0,.3-.2.4s-.1.1-.2.2c0-.3.2-.3.4-.5Z"/>
  <path class="st54" d="M70.4,12.4c-.2.2-.2-.1-.3-.2-.1,0,0,.2-.3-.2h0c.2,0,.4.2.5.4Z"/>
  <path class="st69" d="M67.4,13.4c0,.6-.2.4-.4.4v-.3c0,0,.2,0,.2,0,0-.3,0-.2.2-.3Z"/>
  <path class="st9" d="M62,30.6c0,.3,0,0-.3.1s-.3.1-.5,0c0,0,.6-.3.8-.2Z"/>
  <path class="st45" d="M63.3,29.6s.2-.1.2,0c.1,0,0,.5,0,.6,0,0-.2,0-.2,0,.2,0,0-.3,0-.4Z"/>
  <path class="st54" d="M74.2,16.4c.1,0,.5,0,.5.1s0,.1,0,.2v.2c0,0-.2,0-.2,0,0-.4-.2-.2-.4-.4Z"/>
  <path class="st6" d="M59.6,24.1c-.2,0-.3,0-.4,0,0-.1,0-.2,0-.4.2,0,.4,0,.5.3Z"/>
  <path class="st6" d="M72.3,14.7c.2,0,.9.4.4.4,0-.1-.3-.1-.4-.2s0-.1,0-.2Z"/>
  <path class="st18" d="M67.5,24c0,0,0,.3,0,.4,0,0-.5-.1-.5.2,0,0,0-.2,0-.3,0,0,.4,0,.4,0s0-.3,0-.4h0Z"/>
  <path class="st53" d="M73.7,19.1c0,.1-.2.6-.4.6,0-.1,0-.4.1-.5s.2,0,.2-.1Z"/>
  <path class="st66" d="M57.7,25.2c0,.2.2.7,0,.6,0,0,0,0,0,0,0-.2,0-.3,0-.4s.1,0,.2-.1Z"/>
  <path class="st30" d="M57.8,24.7c.1,0,0,.3,0,.4h-.2s0,0,0,0c-.1-.5,0-.2,0-.5Z"/>
  <path class="st2" d="M62.8,30.2s0,0,0,0h-.7c.2,0,.4-.2.6,0Z"/>
  <path class="st24" d="M67.5,13.4c-.1-.1.2-.4.3-.4,0,.3,0,.4-.3.4Z"/>
  <path class="st8" d="M74.2,18.7s-.1,0-.1.1,0,.4-.3.3h0c.2-.2,0-.5.4-.4Z"/>
  <path class="st4" d="M65.4,22.9s.2.2,0,.3-.4,0-.4.2c0,0,0,0,0-.2,0,0,.3-.1.3-.3Z"/>
  <path class="st39" d="M60.2,30c-.1.2-.6-.2-.5-.4.2.1.4.2.5.4Z"/>
  <path class="st67" d="M62.4,21.2c.5,0,0,.2-.2.4h0c0-.2.1-.2.3-.4Z"/>
  <path class="st29" d="M58.9,25.5c-.2,0-.4-.2-.4-.4.3.2.3.1.4.4Z"/>
  <path class="st36" d="M61.2,20.4s0,.2,0,.3-.1,0-.2,0h0c0-.4,0-.2.2-.2s0,0,.2-.2Z"/>
  <path class="st59" d="M32,3.5c0,0,.1,0,.2,0v.2c0,0-.2-.2-.2-.2Z"/>
  <path class="st58" d="M-39.2,4.3c2.2-.3,4.9-.8,6.6-.3.9-.6,3.8-.7,4.9-.2.1-.8,2.5-.7,2.9,0,.4-.8.8.6.9-.2,1,.8.6.2.9,0s.9.5.7-.2c.4.2,1,.8.6,0,0,0,1.6,0,1.5.5.3,0,0-.2.2-.3.6.8.7,0,1.3,0s.9.7.6-.2l.7.4c.2-.7.8-.3,1.1,0,.6-1.2,1.9.8,2.3,1.2.3.2,2.7-.2,1.5.6,1.3,0,.2,1.4.9,1.9h-.5c.4,1.6.2,3.8-.2,5.7,0,0,.6.1.5.3-.9.2.2,1.2-.7,1,.9.9-.2,3.2-.1,3.9.5.1,0,.7,0,1,.5,0,.3.5-.1.6.6.3.2.3-.1.5.9.2.3,1.2.5,1.9,0,.5.8,1.1.1,1.3.4,1.7.6,3,.3,4.7.4.1.4.1,0,.3.7-.2.3,1.8-.2,1.5,0,.3.4,0,.5.1-.3,1.8.6,4.1-.6,5.3.4.3.5,1.3,0,1.5.9.7-.2.5.4,1.7-.8-.3,1,2.4-.5,2.4.8.6.4.9.5,2.1-1.3.4.5.5-.8,1.5.6,0,.6.6,0,.5-.9-.7-.4.1-1,0-.5-.7-.3,0-.3,0,0,0-.5-.2-.1.5-3.3,0-9.1-.5-12-.2-8.4-1.9-16.4,1.6-24.5-1.9,1.1-.1-.6-.5.4-1.2-1.5,0,.4-1.1-.7-1.3-.2-.7.4-.2.4-.6-.8,0-1-2.8-.6-3.2-.9-1.3-.4-3.8-.9-6.1-.3-.8-.5-1.1,0-1.6-.5.1-.7-2.2-.2-2.2-1.3-2.1.1-5.5-.6-7.9,1.4-3.2,4.3-7.3,6.5-9.5.7-.9,1.5-1.8,1.6-2.4,1.1-.5.9-1.6,1.9-1.7.5-.2.1-.7.1-.8.9-.3,1.9-.7,3.1-.9ZM-34.8,6.2c-1.3-.4-2,0-2.1,1.3.7,0-.3.8.7,1-.8.5,0,1.5,0,2.3h-.5c-.6,8.6,6.6,4.4,12.6,4.8,2.1-.4-.1-3.8,1.2-4.4-1.4,0,.1-2-1-2.5.8,0-.2-.5-.2-.6,0-.4.4-.7-.2-.7,0-.7.6-2.4-2.1-1.9,0,0,.1.3.1.3-.8-.2-2.7-.3-3.2.2-1.1,0-4.3-.3-5.4,0ZM-34.3,25.1c-1.9.4-3.7,0-5.6,0,.2.5-1.1,1.3-.2,1.5.1.6-.6,1.9.2,1.9-.9,4.1-.1,10.4,0,15.2,5.3,0,14.1,1.4,19.4-.3-.1-3.6.4-10.1,0-13,2.5-7-9.5-4.5-13.7-5.2ZM-50.5,37.9c-.2,0-.4.1-.3.2.2,0,.4-.1.3-.2ZM-12.1,38.4v.2c.1,0,.1-.1,0-.2Z"/>
  <path class="st0" d="M4,35.8c.1,0,0,.3-.3.2s0-.3.3-.2Z"/>
  <path class="st51" d="M-63.4,3.1c.3.2,1.7,1.3,1.8,1.4.2.3,0,1.1.6,1.1l-.3.4h.3c0,0,0,.4,0,.4-.3,0-.3.7,0,.9s1.2.2,1.5.7c.3-.6,2.1-.3,2.5.3l.2-.3c.2.4.5.1.8.2s.3.3.5.3,1.2,0,1.5,0,1.1,1.1.9.2c.3.3.9.2,1,.2s.6.8.7.1c.6.7,1.7.6,2.4,1.1s2.1,1.6,2.3,2.2.5,1.7.5,1.7c0,.4-.5.6.2,1.1h-.6c0,.3.2.2.3.3.3.6-.3.9-.3,1.4s.5.5-.3.9v.4c-.5,0-.9-.4-1.4-.5-2.3-.8-5.7-1.4-8.1-1.7s-.5-.2-.5-.2,0,.3-.1.3c-.3,0-1-.2-1.3-.3-2.1-.2-4.3-.5-6.5-.8v.3c-.1,0-.8-.3-.8-.3v.3c-2.4-.6-4.8-.1-7.1-.2s-3.2-.3-4.8-.4-1.1.5-1.6-.2v.5c-.3,0-.8-.2-.9-.1s0,.3-.2.3-.4-.2-.6-.1-1,.2-1,.2c-.6,0-.7-.7-.9,0-.3-.1-.7.1-.9.4-.8,0-1.4-.7-1.9-.9s-.7,0-1.1-.1-.6-.5-.6-.5c0,0,.2-.3.1-.4s-.3,0-.4-.2c-.4-.7-.2-3.1,0-3.8s.7-1.8,1.4-1.5l-.5-.2c0-.9,1.2-.6,1.8-.8s0-.3.2-.3c.4,0,.7.4.8-.3h.4c0,.1,0-.2,0-.2h.7c0,.1-.2-.2-.2-.2.3,0,.7.2,1,.2,1,0,2.2-.5,3.4-.4s.6.2.8.2,0-.3.2-.3c.4,0,1.7.2,2.1.2.7,0,1.5-.4,2,.2l.2-.3c.6.5,1.2,0,1.9.3,0-.3.5-.2.5-.4.2-.4.2-1.4.3-1.8s.6,0,0-.5h.3c-.3-.4-.2-.6-.2-1,.4,0,1,0,1.4-.2s.1-.3.2-.3c1.6-.3,3.9,0,5.2,1Z"/>
  <path class="st51" d="M-74.4,16.7c0,0,0-.3.1-.3,2.1.7,4.9,0,7,.8v-.3c.2,0,1.9.6,2,0,0,.1.2.2.4.3.4.1,1,.4,1-.1l.6.5c.3-.8,1.9.5,2.2-.3.8.7,1.7.2,2.4.4s1.5.5,2.2.6,1.8-.4,2-.4c.9,0,2.5,1.1,3.2,1.6s.8.3,1.1.6v.9c0,0-.5,0-.5,0-.2.4.3.3.3.4,0,.3-.1,1.2-.6,1l.3.2c0,.3-.3,1-.3,1.1,0,.2.3.3.3.4s-.3,0-.4.2c-.2.4,0,.7,0,.8s-.3.2-.4.2-.3,1.6-.3,1.9c-1,4.7-1.6,9.9-2.9,14.5s-1,1.7-.6,2.6.9.4-.3.6v.3c-.4.2-.9.4-1.4.5-1.4.4-7.4.2-9.3,0-3-.3-6.1-.9-9-1.3s-.8.2-1.1.2,0-.3-.4-.4c-1.1-.4-2.4.1-3.4-.9v-.3c-1,0-.6-1-.8-1.8-.3-1.2-.7-2.6-.8-3.6s.2-.4.2-.6c0-.4-.3-1.3-.5-1.6l.3-.2-.3-.2c.5-.4,0-1.1-.1-1.6s.5-1.1-.4-1.4c1-.5-.9-1.1.3-1.2-.1-.2-.5-.5-.5-.7s.5-.9-.2-.9c.5-.5,0-.5,0-.9s.2-.4.1-.5-.5-.3-.6-.9.4-.2.3-.7h-.5c0-.4.1-1.1,0-1.5s-.2-1.4-.2-1.5c-.2-.4-.2.2-.2-.7s-.1-.4-.1-.5c0-.2.4,0,.3-.2h-.3c0,0,.1-.5.1-.5l-.5-.2.6-.2c-.8-.1-.5-.7-.5-1.2s-.6-2.8-.5-2.9c.2-.6,1.1-.3,1.5-.3,2.7,0,6-.5,8.5-.2s.5,0,.7,0ZM-74.9,26c-.1-.2,0-1.6,0-1.9s-.4-.5-.5-.9c-.2-.5.2-.9-.7-1.3s-1.1.4-1.7.7c.8.3.2.9.4,1.6l-.3.2c.3-.1.3,1.4.3,1.5s-.4,0-.3.2c.8,1.5.6,3.4.8,4.8s.3,1.3.4,2l-.3.2c.2.2.5.8.6,1s-.3.4-.2.5.2,0,.3.1.2,1,.2,1c0,.2-.4,0-.3.3h.5c0,0-.5.4-.5.4h.6c0,0-.3.2-.3.2l.8,1.5-.5.7c.9,0,.6.8.7,1.2s.4.5.2.9l.9.2.3-2.4h-.3c0,0,0-.4,0-.4h.3c0,0-.3-.3-.3-.3.3-.5,0-.9,0-1.3s-.2-1.5.2-1.6c-.4-.6-.3-1.6-.3-2.4s-.5-.5,0-1c-.5,0-.2-1-.2-1.5s-.3-.5-.3-.8l.3-.2c-.4.1-.4-.7-.3-1s.8-.4-.3-.8c.3-.4.3-1,.1-1.4s-.2-.1-.3-.2ZM-66.3,23.1l-2.8-.3v.3c-.2,0-.7.7-.8.9s.7,1.4-.2,1.4l.4.5-.4.5c.4,0,.4,1,0,1.1.4.5.4,1.8,0,2.3.5.1,0,.3.5.5-.5.5-.2,1.4,0,2l-.3.2.3.8-.3.2c.6,0,.2.3.2.5.2,1.4,0,2.6,0,3.9s-.2,2.9.3,3.2,1.2.2,1.3.3c.4,0,.2-.5.2-.8s.3,0,.3-.2c0-.3,0-1.7,0-2s.3,0,.3,0c0,0-.4-.8-.3-1.1h.6c.1-.4-.4-.3-.4-.7s.2-.4.2-.6c0-.4-.4-.4.3-.8-.6-.2-.1-.5,0-.8s-.2-.6.2-.8v-1.2c-.1,0,.3.2.3.2l.2-.3c0-.2-.2,0-.3-.3s0-.6,0-.7-.3,0-.3-.1c0-.2.6-.5.6-1.1-.6-.1-.1-.1,0-.5s.2-.7.2-.8c0-.2-.3-.3-.3-.5h.5c-.4-.6-.2-1.4,0-2.1s.5-.4,0-.9h.3c-.1-.2-.3-.9-.3-1s.2,0,.3-.1c0-.6-.2-1-.7-1.3v.3ZM-57.5,24.2c-.9-.4-2-1-3-.7s-.5.8,0,.9c-.5.4-.2,1.2-.2,1.7-.1.8-.5,1.8-.6,2.7s.1,1.2,0,1.9-.5,1-.5,1.2c0,.5.4,1.9-.2,2.2v1.2c.1,0-.2.2-.2.2.3.4.3,1.6.3,2.2s-.5.7,0,1.2h-.3c0,.3.3.1.3.2s-.3.4-.3.7,0,1.9,0,2.3,0,.8.4.9c.9-.1,1.3.3,1.5-.8s-.4-.6.2-.8l-.2-.6h.3c-.6-.7.4-1.7-.2-2.3.6-1,.5-2.6.7-3.9s.7-2.8.7-3c0-.5-.4-1.1.5-1-.5-.5-.1-.5,0-.9.1-.6.2-.6.2-.6,0-.2-.2-.5-.2-.8,0-.4.6-.5,0-1l.6.2c-.2-.1-.3-1.1-.3-1.2,0-.2.3-.2.4-.3s-.2-1.4,0-1.7Z"/>
</svg>