<?xml version="1.0" encoding="UTF-8"?>
<svg id="_レイヤー_1" xmlns="http://www.w3.org/2000/svg" version="1.1" viewBox="0 0 24 24">
  <!-- Generator: Adobe Illustrator 29.3.1, SVG Export Plug-In . SVG Version: 2.1.0 Build 151)  -->
  <defs>
    <style>
      .st0 {
        fill: #3d3d3b;
      }

      .st1 {
        fill: #c3c131;
      }
    </style>
  </defs>
  <path class="st0" d="M18,.8c.4.2.9,1,1.3,1.4,1.3,1.2,2.7,2.4,3.8,3.9s1.1,1.4.8,2.3c-.9.8-1.9,1.6-2.8,2.5-1.6,1.5-3.1,3-4.7,4.5s-.6.8-.9,1.1c-1,.7-2.1,1.6-3,2.5s-1,1.2-1.1,1.3c-.2.1-.5,0-.7.1-2.7,1.1-5.2,2.2-8,3-.2,0-.3.2-.4.2-.2,0-1.1-.6-1.2-.8s-.5-.8-.5-.9c-.2-.9.4-2,.8-2.8.6-1.2,1.6-2.6,2-3.8s.8-1.1,1.1-1.7.4-1.1.6-1.5,1.6-1.4,2.1-1.9c2-2,3.8-4,6-5.8s2.2-1.9,3.2-2.8.9-.7,1-.8c.3-.1.6,0,.8,0ZM18.3,2.3c-.2-.2-.3-.6-.6-.5-.5.4-1,.7-1.5,1.1-2.6,2.2-4.9,4.9-7.6,7.1l-1.4,1.4c.4,0,1.1-.2,1.3.2s.3.9.3,1c0,.5-.2.6-.2,1.1.5-.2,1.4-.5,1.8-.2s.8,1.6.6,2.1c1-.3,1.5,0,1.5,1,.4,0,.5-.3.7-.4,1.5-1.1,2.8-2.5,4.3-3.7s2.1-2.2,3.4-3.3,1.4-1.1,2.1-1.6c0-.5-.5-.5-.8-.9-1.3-1.4-2.5-3.1-3.9-4.4ZM7.9,13.4c.2-.3.5-.8.1-1.1-.8.3-1.6.8-2.5.8-.3,1-.9,1.9-1.4,2.8s-1,2.2-1.5,3.2-.2,0-.2,0c-.2.3,1.2.7,1.4.8s.6.9.8,1c.5.2,1.8-.4,2.3-.6s.6-.4.9-.5c.8-.3,1.7-.6,2.5-.9.1-.7.6-1.1,1-1.7s.4,0,.3-.7.1-.2-.1-.1-.8.3-1,.4c-.4.2-1.2,1.6-1.5.1s1.1-1.5,1.3-2.1,0-.3,0-.4c-.5,0-1,.1-1.5.3s-1,.7-1.3.5-.3-1-.3-1.1c0-.3.4-.6.5-.8Z"/>
  <path class="st1" d="M18.3,2.3c1.4,1.3,2.6,2.9,3.9,4.4s.8.4.8.9c-.7.5-1.4,1-2.1,1.6-1.2,1.1-2.1,2.2-3.4,3.3s-2.8,2.6-4.3,3.7-.3.5-.7.4c0-1.1-.5-1.3-1.5-1,.2-.5-.1-1.8-.6-2.1s-1.4,0-1.8.2c0-.4.3-.6.2-1.1s-.3-.9-.3-1c-.2-.4-1-.2-1.3-.2l1.4-1.4c2.7-2.2,4.9-4.9,7.6-7.1s1-.7,1.5-1.1c.3,0,.4.3.6.5Z"/>
  <path class="st1" d="M7.9,13.4c0,.2-.5.5-.5.8s.2,1,.3,1.1c.3.2,1-.3,1.3-.5.5-.2,1-.4,1.5-.3,0,.2,0,.3,0,.4-.2.6-1.4,1.4-1.3,2.1.2,1.5,1.1.1,1.5-.1s.8-.4,1-.4.1,0,.1.1c0,.6-.1.4-.3.7-.4.6-.9.9-1,1.7-.8.3-1.7.5-2.5.9s-.6.4-.9.5c-.5.2-1.8.8-2.3.6s-.6-.8-.8-1-1.6-.5-1.4-.8.2,0,.2,0c.5-.9,1-2.2,1.5-3.2s1.1-1.8,1.4-2.8c.9,0,1.7-.5,2.5-.8.4.3,0,.7-.1,1.1Z"/>
</svg>