<?xml version="1.0" encoding="UTF-8"?>
<svg id="_レイヤー_1" data-name="レイヤー_1" xmlns="http://www.w3.org/2000/svg" version="1.1" viewBox="0 0 48 48">
  <!-- Generator: Adobe Illustrator 29.3.1, SVG Export Plug-In . SVG Version: 2.1.0 Build 151)  -->
  <defs>
    <style>
      .st0 {
        fill: #374ea0;
      }
    </style>
  </defs>
  <path class="st0" d="M23.6,5.1s0-.1,0-.2c.5-.2.9.2,1.1.2.3,0,.6-.1,1,0s.3.2.6.2l.2-.2c.5.4,1.1.6,1.6,1s.6.4.7.4,0,.1,0,.2c.1.2.3,0,.1.4.4.2.3.5.5.9h-.2c0,0,0,.3,0,.3h-.1c0,.1-.3,0-.3,0,.1.4,1,.6.4.7.6.6-.5.7.2,1l-.3.3.3.3-.4.2c.3,0,.3,0,.4.3l-.3.2v.3c0,0-.2,0-.2,0l.4.3-.2.2c.5,0,.3.5,0,.4-.2.3,0,.3.3.4h-.2c0,0,.2.2.2.2,0,.2-.4.4.2.3h-.4c0,.3.1.6.2.7,0,.2-.3.4,0,.6-.4.1-.2.8,0,1.1-.3,0,0,.3-.1.5s-.2.2-.2.6.1,0,.2,0c0,.1,0,.8,0,.9.2-.1.6-.5.8-.5s.4.3.6,0v.3c.3-.2.5-.3.8-.2s.2.5.4-.1l.5.2.2-.3.2.4.3-.3v.2c0,0,.3-.2.3-.2v.2c.1,0,.6-.2.6-.2,0,.4.6,0,.8,0s0,.2,0,.2c.3,0,.7-.1.9-.3v.3c.2,0,0-.2.2-.2.3,0,.5,0,.7.2l.5-.2v.5s.3-.5.3-.5l.4.3.3-.3v.4c0,0,0-.3.1-.3s.1.2.2.2.4-.2.5-.2v.3s.2,0,.2,0l-.3.4c.3,0,.4-.4.6-.5.2.4.4,0,.4,0,.1,0,1.1,0,.9.3l.3-.4c.4,0,.5.4.8.2v.6c0,0,0,0,0,0v.4c.1,0,.3-.2.3-.2,0,.5.4.9.5,1.4s.3,2,.3,2.4-.3.2,0,.3v.2c.4.2-.2.7-.2.9s.3,0,.2.6-.2.4-.3.6,0,.7,0,1.1-.2.3-.2.6l.2.2c-.4.5-.6,1.1-1,1.6s-.4.6-.4.7-.1,0-.2,0c-.2.1,0,.3-.4.1-.2.4-.5.3-.9.5v-.2c0,0-.3,0-.3,0h-.1c0-.1.1-.5.1-.5-.3.2-.5,1-.7.4-.6.6-.7-.5-1,.2l-.3-.3-.3.3-.2-.4c0,.3,0,.3-.3.4l-.2-.3h-.3c0,0,0-.2,0-.2l-.3.4-.2-.2c0,.5-.5.3-.4,0-.3-.2-.3,0-.4.3v-.2c0,0-.2.2-.2.2h-.3c0-.1,0,.2,0,.2v-.4c-.3,0-.6.1-.7.2-.2,0-.4-.3-.7,0,0-.5-.3-.2-.6-.1s-.5.1-.5.1,0-.2,0-.2-.3,0-.4,0-.4-.4-.5,0v-.2c-.6.3-.7-.1-.7-.1-.1,0-.3.1-.5.2s-.5-.1-.5,0,0,.5-.3.5l.2.2v.6c0,0,.1.9,0,1s-.2,0-.2.1c0,.2,0,.8,0,1.2,0,.5.2,1.3-.1,1.7h.2c-.1.4,0,.8,0,1.1s-.1.6-.3.6l.4.2h-.5s.4.3.4.3v.3c0,0-.4.2-.4.2l.4.3h-.3c0,.1.5.3.5.3h-.4c0,0,.4.2.4.2l-.2.2c.2,0,.2.3.2.5s-.2,0-.2,0c0,.3.4.5,0,.9h.3c-.4.4,0,1-.3,1.1.4.4,0,.7-.2,1.1h.4c-.1.3-.2.6-.2.8-.3,0-.5.4-.7.4s-.7-.2-.9,0v.2c-.4.2-.8,0-1.2-.2v.2c-1.1-.4-2.5,0-3.5-.1s-2.3-.3-3.4-.6-.5,0-.7,0,0-.7-.6-.7l.2-.3c0-.2-.3-.3-.3-.3,0,0,.4-.6-.2-.5l.3-.3c-.3,0-.4-.6-.1-.7-.4-.6-.2-1.5-.3-2.2s-.3-1.2,0-1.3c0-.1-.1-.2-.2-.3,0-.2.2-.3-.1-.3h.3c0,0-.2-.4-.2-.4h.2c0-.1-.3-.3-.3-.3.5-.2,0-.7.1-1s.2,0,.2-.1c0-.2-.4-.7,0-.8l-.2-.2h.2c-.1-.2-.2-.7-.2-1s.2-.4.2-.5-.2-.8-.3-.9h.3s-.2-.3-.2-.3h.3c-.2,0-.3-.3-.4-.3-.2,0-.9.1-1,0s0-.2-.1-.2c-.2,0-.8,0-1.2,0-.5,0-1.3.2-1.7-.1v.2c-.4-.1-.8,0-1.1,0s-.6-.1-.6-.3l-.2.4v-.5s-.3.4-.3.4h-.3c0,0-.2-.4-.2-.4l-.3.4v-.3c0,0-.3.5-.3.5v-.4c0,0-.2.4-.2.4l-.2-.2c0,.2-.3.2-.5.2s0-.2,0-.2c-.3,0-.5.4-.9,0v.3c-.4-.4-1,0-1.1-.3-.4.4-.7,0-1.1-.2v.4c-.3-.1-.6-.2-.8-.2,0-.3-.4-.5-.4-.7s.2-.7,0-.9h-.2c-.2-.4,0-.8.2-1.2h-.2c.4-1.1,0-2.5.1-3.5s.3-2.3.6-3.4,0-.5,0-.7.7,0,.7-.6l.3.2c.2,0,.3-.3.3-.3,0,0,.6.4.5-.2l.3.3c0-.3.6-.4.7-.1.6-.4,1.5-.2,2.2-.3s1.2-.3,1.3,0c.1,0,.2-.1.3-.2.2,0,.3.2.3-.1v.3c0,0,.4-.2.4-.2v.2c.1,0,.3-.3.3-.3.2.5.7,0,1,.1s0,.2.1.2c.2,0,.7-.4.8,0l.2-.2v.2c.6-.3,1.2-.2,1.7-.1v-.3c0,0,.1-.1.1-.1v-.2c-.1,0,.2,0,.2,0-.2-.2-.3-.5-.2-.8s.5-.2-.1-.4l.2-.5-.3-.3.4-.2-.3-.3h.2c0,0-.2-.3-.2-.3h.2c0-.1-.2-.6-.2-.6.4,0,0-.6,0-.8s.2,0,.2,0c0-.3-.1-.7-.3-.9h.3c0-.2-.2,0-.2-.2,0-.3,0-.5.2-.7l-.2-.5h.5s-.5-.3-.5-.3l.3-.4-.3-.3h.4c0,0-.3,0-.3-.1s.2-.1.2-.2-.2-.4-.2-.5h.3s0-.2,0-.2l.4.2-.5-.5c.4-.2,0-.4,0-.4,0-.1,0-1.1.3-.9l-.4-.3c0-.4.4-.5.2-.8h.6c0,0,0,0,0,0h.4c0-.1-.2-.3-.2-.3.5,0,1-.4,1.4-.5s1.9-.3,2.3-.2.2.3.3,0h.2c.2-.4.7.2.9.2Z"/>
</svg>