<?xml version="1.0" encoding="UTF-8"?>
<svg id="_レイヤー_1" xmlns="http://www.w3.org/2000/svg" version="1.1" viewBox="0 0 24 24">
  <!-- Generator: Adobe Illustrator 29.3.1, SVG Export Plug-In . SVG Version: 2.1.0 Build 151)  -->
  <defs>
    <style>
      .st0 {
        fill: #7979d1;
      }

      .st1 {
        fill: #3d3e40;
      }

      .st2 {
        fill: #fefefe;
      }
    </style>
  </defs>
  <path class="st1" d="M2.2,4.3C3.5,2.8,5.1,1.6,6.6.3c4-.2,7.9,0,11.9.2s2.3-.1,3.3.1.7.5.7.6c0,0,.2,1.4.2,1.7.4,4.2-.1,8.4,0,12.6s0,4.5-.2,7,.2,1.2-.3,1.3c-.6,0-1.4-.1-2-.1-4.1,0-8.2-.2-12.3-.3-1.7,0-3.9.1-5.5-.2s-.9-.4-.9-.4c-.3-.3,0-1.1,0-1.5s-.1-.4-.1-.5c-.2-5.3-.1-10.6.3-15.9.2-.2.4-.4.6-.6ZM7.8,1c-.1,0-.4,0-.5,0-1.3,1.2-2.9,2.3-4.2,3.5s-.6,1.6-.6,3.1-.2,2.5-.2,3.7c0,1.8.2,3.6.3,5.4s0,3.7.1,5.5l18.7.3.2-21.2-3.9-.2c.1.4,0,.8,0,1.2,0,.9,0,1.8,0,2.6s.3,2.7-.2,3-2.6.3-2.9.3c-1.3,0-3,0-4.3,0s-2.2-.2-2.4-.6c-.3-.8.2-6.6,0-6.7ZM9.7,1.1c-.4,0-.7,0-1.1,0,.2,2.2.1,4.4.2,6.6.4.2.8,0,1.2,0,2,0,4.1.1,6.1-.1s.5.2.6,0,.2-1.5.2-1.9c0-1.2-.2-2.5-.3-3.7s0-.5,0-.7c-.3,0-.5,0-.8,0-2,0-4.2-.2-6.2-.1Z"/>
  <path class="st0" d="M7.8,1c.3.2-.2,5.9,0,6.7.1.5,1.9.6,2.4.6,1.3,0,3,.1,4.3,0s2.8-.2,2.9-.3c.4-.3.2-2.4.2-3s-.1-1.8,0-2.6.2-.8,0-1.2l3.9.2-.2,21.2-18.7-.3c-.1-1.8,0-3.7-.1-5.5s-.2-3.6-.3-5.4.2-2.5.2-3.7-.6-1.9.6-3.1,2.9-2.3,4.2-3.5c.1,0,.4-.1.5,0ZM9.4,10.5c-.5,0-1.2.2-1.7.3s-3.3,0-3.5.2c-.2,3.2-.2,6.5,0,9.7.5.2.9.5,1.5.5,3.8.3,7.8-.2,11.6-.1s2.5.3,2.7.2c.3-1.9.3-3.8.3-5.7s.2-.7.2-1c0-.6.1-3.4,0-3.7s-1-.5-1.2-.5c-1.5-.1-3.5.2-5.1.2s-3.1-.1-4.7,0Z"/>
  <path class="st2" d="M15.9,1.2c0,1.1,0,2.2,0,3.3s-.2.9-.2,1.2c0,.6.3,1.4.3,2-2,.2-4,0-6.1.1l-.2-6.7c2,0,4.2,0,6.2.1Z"/>
  <path class="st0" d="M9.7,1.1l.2,6.7c-.4,0-.8,0-1.2,0,0-2.2,0-4.4-.2-6.6.4,0,.7,0,1.1,0Z"/>
  <path class="st0" d="M15.9,1.2c.3,0,.5,0,.8,0,0,.2,0,.5,0,.7,0,1.2.3,2.5.3,3.7s0,1.6-.2,1.9c-.2.3-.4,0-.6,0,0-.7-.3-1.4-.3-2s.2-.8.2-1.2c0-1.1,0-2.2,0-3.3Z"/>
  <path class="st1" d="M9.4,10.5c1.6-.1,3.1,0,4.7,0s3.6-.3,5.1-.2,1.1.3,1.2.5c.2.3.1,3.1,0,3.7s-.2.7-.2,1c0,1.9,0,3.8-.3,5.7-.2.1-2.3-.2-2.7-.2-3.8,0-7.8.4-11.6.1s-1-.2-1.5-.5c-.2-3.2-.3-6.5,0-9.7.2-.3,3-.2,3.5-.2s1.2-.2,1.7-.3ZM5,20.5l13.8-.2c.1,0,.3-1.8.3-2.1.2-1.7.4-3.9.4-5.6s0-1.3-.1-1.4c0-.1-.4-.2-.6-.2-1.8-.1-3.8.2-5.6.2s-3.5-.2-5.2.2h-3.1c0-.1.1,9.1.1,9.1Z"/>
  <path class="st2" d="M5,20.5v-9.3c-.1,0,3,.1,3,.1,1.7-.4,3.5-.2,5.2-.2s3.8-.3,5.6-.2.5,0,.6.2,0,1.2.1,1.4c0,1.7-.2,3.9-.4,5.6s-.2,2.1-.3,2.1l-13.8.2ZM15,13.8c-.2-.1-1.5-.3-1.8-.3-.4,0-.9.3-1.3.3s-1.1-.3-1.6-.3-1,.2-1.5.2-.9-.5-1.3-.5-1.2.4-1.1.7c0,.7,1.2,0,1.6,0s.4.3.6.4c.8.3,1.5,0,2.4,0s.9.2,1.3.2.9-.3,1.3-.3,1,.3,1.6.2c0,0,0-.4-.2-.4ZM18.7,14c0-.9-.5-.5-1.1-.5s-2.5,0-1.6.6,1.9-.4,2.7-.1ZM7.5,15.9c-.4,0-1.3.2-.7.7s1.1-.3,1.5-.3c1,0,2.3.5,3.4.6,1.6.1,4.1,0,5.7-.2s.5-.3.1-.5-1.5-.1-1.9,0-1.4.3-2,.3-.9-.2-1.3-.2-.8.2-1.1.2c-.5,0-1.1-.4-1.6-.5s-1.7,0-2.2,0ZM10.8,19.2s0-.4-.1-.5c-.6-.5-3-.2-3.8,0,.2.9.8.4,1.4.4s2.4.2,2.5.1ZM17.8,19.2c0-.3-.2-.6-.5-.6-1-.2-2.6.2-3.6.2s-2.2-.1-2.3,0c0,.6.6.7,1.1.7,1.3,0,2-.2,3.4,0s1.3-.2,1.9-.3Z"/>
  <path class="st1" d="M7.5,15.9c.5,0,1.7,0,2.2,0s1.1.5,1.6.5.7-.2,1.1-.2.9.2,1.3.2,1.4-.2,2-.3,1.6-.2,1.9,0,.3.4-.1.5c-1.6.2-4.1.3-5.7.2s-2.4-.6-3.4-.6-1.3.5-1.5.3c-.6-.5.3-.6.7-.7Z"/>
  <path class="st1" d="M15,13.8c0,0,.2.4.2.4-.6.2-1.1-.2-1.6-.2s-.9.3-1.3.3-.9-.2-1.3-.2c-.8,0-1.5.4-2.4,0s-.4-.3-.6-.4c-.4,0-1.6.8-1.6,0s.9-.6,1.1-.7c.4,0,.9.4,1.3.5s1-.2,1.5-.2,1.1.3,1.6.3.9-.3,1.3-.3,1.6.2,1.8.3Z"/>
  <path class="st1" d="M17.8,19.2c-.6.1-1.3.4-1.9.3-1.4-.2-2.1.1-3.4,0s-1.1-.1-1.1-.7c0-.1,1.9,0,2.3,0,1,0,2.6-.4,3.6-.2s.6.3.5.6Z"/>
  <path class="st1" d="M10.8,19.2c0,0-2.1-.1-2.5-.1-.6,0-1.2.5-1.4-.4.7-.2,3.2-.4,3.8,0s.2.4.1.5Z"/>
  <path class="st1" d="M18.7,14c-.8-.3-1.9.8-2.7.1s1.3-.6,1.6-.6c.5,0,1-.4,1.1.5Z"/>
</svg>