<?xml version="1.0" encoding="UTF-8"?>
<svg id="_レイヤー_1" xmlns="http://www.w3.org/2000/svg" version="1.1" viewBox="0 0 24 24">
  <!-- Generator: Adobe Illustrator 29.3.1, SVG Export Plug-In . SVG Version: 2.1.0 Build 151)  -->
  <defs>
    <style>
      .st0 {
        fill: #4d8747;
      }

      .st1 {
        fill: #3a3d39;
      }
    </style>
  </defs>
  <path class="st1" d="M15.8.9c.6.5.5,1.1.7,1.8.9,0,1.7.2,2.5.4s1.7.5,2.5,1.2.6.4.7.5,0,.3,0,.4.2.3.2.4c.1.7,0,1.6,0,2.3-.2,0-.8.6-.9.7s-.5,0-.6.1-.3,2.1-.3,2.5c-.5,3.1-.7,6.2-1.1,9.3s-.2,1.9-.4,2.4-1.7.4-2.2.5c-2.3.3-5,.5-7.3.2s-2.1-.4-3.1-.6-1.5-.4-1.7-.8c-.5-2.6-1.2-5.3-1.5-7.9s0-1.1,0-1.7c-.1-1.5-.6-2.9-.5-4.4-1.3-.2-1.3-.7-1.4-1.9s0-2.6.9-2.9c1.4-.4,2.8-.3,4.2-.4s1.1-.3,1.6,0c.1-.1,0-1.1.1-1.2s.6-.8.6-.8c.2-.2,1.3-.3,1.6-.3,1-.1,3.9-.1,4.8.2s.3.2.4.3ZM14.4,1.3c0,0-1-.2-1.3-.2s0,.2-.2.2c-.6,0-1.5,0-2.1,0-1.6.2-1.3.8-1.6,2.2-1,.4-2.1.2-3.2.3s-2.1.2-3.1.3c0,.3-.3.7-.3.9s.2.5.3.7-.2,1.1,0,1.4.7.1,1,.2c1.8.4,2.9.6,4.8.7,3.6.1,7.8,0,11.4-.6s1-.3,1.1-.5c0-.5,0-1.9-.4-2.3s-2.9-.8-3.4-.9-1,.2-1.3,0-.7-.5-.7-.5c-.3-.6.2-1.3,0-1.6s-.5-.1-.8-.2,0-.2,0-.2ZM19.7,8.5l-2.3.4c-3.2,0-6.4.3-9.6,0s-2.4-.5-3.6-.5v2.2c.8,2.2.9,4.5,1.2,6.7s.6,3.2.8,4.8c3.8,1.2,7.8,1,11.7.5l1.8-14.1Z"/>
  <path class="st0" d="M19.7,8.5l-1.8,14.1c-3.9.5-8,.7-11.7-.5-.2-1.6-.5-3.2-.8-4.8s-.4-4.5-1.1-6.7v-2.2c1.1,0,2.3.4,3.5.5,3.2.3,6.4,0,9.6,0l2.3-.4ZM8.9,21.4c-.1-1-.5-2-.6-3s-.2-2.3-.4-3.5-.4-2.6-.5-3.8c0-.3-.6-.5-.9-.5,0,.8.2,1.6.3,2.4.3,2,.5,4,.8,6.1s0,.6,0,.9.4,1.3.5,1.3c.2.2.6.1.8.1ZM12.7,21.1c0-.2,0-.3,0-.4,0-1.2.2-2.6.3-3.8,0-1.9-.1-3.7-.1-5.6-.2-.3-1-.9-1-.2s0,2,0,3c0,2.3-.2,4.7,0,7h.9ZM17,20.8c.1-.2,0-.5,0-.7,0-1.9.4-3.7.6-5.6s.3-1.9.2-2.5-.3-.9-.7-1c-.4.3-.2.7-.2.9-.2,1.2-.4,2.4-.6,3.6s-.2.8-.2,1c0,.2.1.4.1.5s-.2,0-.2.2c-.1,1,.1,2.4,0,3.5.4,0,.9.6,1.2.1Z"/>
  <path class="st0" d="M14.4,1.3s0,.1,0,.2c.2,0,.6-.1.8.2s-.3,1.1,0,1.6.6.5.7.5c.4.2.9,0,1.3,0s3.1.5,3.4.9.5,1.8.4,2.3-.8.5-1.1.5c-3.6.5-7.9.7-11.4.6s-3-.2-4.8-.7-.8,0-1-.2,0-1,0-1.4-.3-.5-.3-.7c0-.3.3-.6.3-.9,1,0,2.1-.2,3.1-.3s2.2,0,3.2-.3c.3-1.4,0-2,1.6-2.2s1.5,0,2.1,0,.1-.2.2-.2c.3,0,1.3.2,1.3.2ZM13.9,3.7c.1-.1.2-.5.1-.7s-1-.8-1.2-.8c-.3,0-2.3-.1-2.4.2-.3,1,1.1,1.4,1.8,1.4s1.4,0,1.6-.1Z"/>
  <path class="st1" d="M17,20.8c-.3.5-.8-.2-1.2-.1.1-1.1-.1-2.4,0-3.5s.2-.1.2-.2c0-.1-.1-.3-.1-.5s.2-.7.2-1c.2-1.2.5-2.4.6-3.6s-.2-.7.2-.9c.4.2.7.6.7,1s-.1,1.8-.2,2.5c-.2,1.9-.5,3.7-.6,5.6s.2.5,0,.7Z"/>
  <path class="st1" d="M12.7,21.1h-.9c-.2-2.3,0-4.7,0-7s0-2,0-3,.8-.1,1,.2c0,1.9.2,3.7.1,5.6s-.2,2.5-.3,3.8.1.3,0,.4Z"/>
  <path class="st1" d="M8.9,21.4c-.3,0-.6,0-.8-.1s-.4-1.2-.5-1.3c0-.3,0-.6,0-.9-.3-2-.5-4-.8-6.1s-.4-1.5-.3-2.4c.3,0,.8.2.9.5.2,1.3.4,2.6.5,3.8s.3,2.3.4,3.5.4,2,.6,3Z"/>
  <path class="st1" d="M13.9,3.7c-.2.2-1.3.1-1.6.1-.8,0-2.1-.4-1.8-1.4s2.1-.3,2.4-.2,1.1.6,1.2.8,0,.6-.1.7ZM13.1,3.2c.3-.6-1.5-.6-1.6-.5s0,.4,0,.4c0,0,1.3,0,1.6,0Z"/>
</svg>